<svg width="20" height="21" viewBox="0 0 20 21" fill="none" xmlns="http://www.w3.org/2000/svg">
<path d="M3.98533 18.9331C3.98533 18.9331 -0.982814 16.0118 0.174922 11.1225C0.174922 11.1225 1.16405 7.65917 4.03591 5.28819C4.03591 5.28819 4.76091 0.718583 6.39635 0.537911C8.03179 0.357239 8.75678 4.62666 8.75678 4.62666H11.7916C11.7916 4.62666 12.5166 0.429507 14.3319 0.254394C16.1472 0.0792811 16.7823 5.19647 16.7823 5.19647C16.7823 5.19647 19.9716 8.11779 19.9998 11.7507C20.0391 17.2264 15.4222 18.9331 15.4222 18.9331C15.4222 18.9331 10.884 21.8961 3.98814 18.9331H3.98533Z" fill="#EBBB11"/>
<path d="M11.48 6.614V16.792L9.996 16.778V8.196L8.204 9.19L7.588 7.944L10.01 6.614H11.48Z" fill="white"/>
</svg>
