<svg width="20" height="21" viewBox="0 0 20 21" fill="none" xmlns="http://www.w3.org/2000/svg">
<path d="M3.98533 18.8081C3.98533 18.8081 -0.982814 15.8868 0.174922 10.9975C0.174922 10.9975 1.16405 7.53417 4.03591 5.16319C4.03591 5.16319 4.76091 0.593583 6.39635 0.412911C8.03179 0.232239 8.75678 4.50166 8.75678 4.50166H11.7916C11.7916 4.50166 12.5166 0.304507 14.3319 0.129394C16.1472 -0.0457189 16.7823 5.07147 16.7823 5.07147C16.7823 5.07147 19.9716 7.99279 19.9998 11.6257C20.0391 17.1014 15.4222 18.8081 15.4222 18.8081C15.4222 18.8081 10.884 21.7711 3.98814 18.8081H3.98533Z" fill="#969696"/>
<path d="M6.896 15.615C8.94 13.655 11.726 11.667 11.726 9.945C11.726 8.797 10.998 7.985 9.962 7.985C9.164 7.985 8.366 8.559 8.002 9.385L6.7 8.811C7.26 7.523 8.618 6.627 9.962 6.627C11.88 6.627 13.21 7.999 13.21 9.945C13.21 12.087 10.886 13.991 8.996 15.615H13.378V16.917H7.036L6.896 15.615Z" fill="white"/>
</svg>
