<svg width="20" height="21" viewBox="0 0 20 21" fill="none" xmlns="http://www.w3.org/2000/svg">
<path d="M3.98533 18.8081C3.98533 18.8081 -0.982814 15.8868 0.174922 10.9975C0.174922 10.9975 1.16405 7.53417 4.03591 5.16319C4.03591 5.16319 4.76091 0.593583 6.39635 0.412911C8.03179 0.232239 8.75678 4.50166 8.75678 4.50166H11.7916C11.7916 4.50166 12.5166 0.304507 14.3319 0.129394C16.1472 -0.0457189 16.7823 5.07147 16.7823 5.07147C16.7823 5.07147 19.9716 7.99279 19.9998 11.6257C20.0391 17.1014 15.4222 18.8081 15.4222 18.8081C15.4222 18.8081 10.884 21.7711 3.98814 18.8081H3.98533Z" fill="#805637"/>
<path d="M12.104 11.653C13.014 12.185 13.588 13.179 13.588 14.033C13.588 15.769 12.16 17.001 10.13 17.001C8.114 17.001 6.686 15.741 6.686 13.949H8.17C8.17 14.971 8.982 15.685 10.13 15.685C11.306 15.685 12.146 14.971 12.146 13.949C12.146 12.969 11.32 12.269 10.158 12.269H9.43V11.023H10.172C11.236 11.023 11.992 10.393 11.992 9.497C11.992 8.587 11.264 7.957 10.228 7.957C9.192 7.957 8.478 8.601 8.478 9.511H6.994C6.994 7.817 8.324 6.641 10.228 6.641C12.104 6.641 13.434 7.789 13.434 9.413C13.434 10.197 12.93 11.121 12.104 11.653Z" fill="white"/>
</svg>
