<svg width="20" height="21" viewBox="0 0 20 21" fill="none" xmlns="http://www.w3.org/2000/svg">
<path d="M3.98533 18.9546C3.98533 18.9546 -0.982814 16.0333 0.174922 11.144C0.174922 11.144 1.16405 7.68065 4.03591 5.30968C4.03591 5.30968 4.76091 0.740068 6.39635 0.559396C8.03179 0.378724 8.75678 4.64814 8.75678 4.64814H11.7916C11.7916 4.64814 12.5166 0.450991 14.3319 0.275878C16.1472 0.100765 16.7823 5.21796 16.7823 5.21796C16.7823 5.21796 19.9716 8.13928 19.9998 11.7722C20.0391 17.2479 15.4222 18.9546 15.4222 18.9546C15.4222 18.9546 10.884 21.9176 3.98814 18.9546H3.98533Z" fill="#EBBB11"/>
<path d="M11.5542 6.59252V16.7705L10.0702 16.7565V8.17452L8.27822 9.16852L7.66222 7.92252L10.0842 6.59252H11.5542Z" fill="white"/>
</svg>
