<svg width="24" height="24" viewBox="0 0 24 24" fill="none" xmlns="http://www.w3.org/2000/svg">
<path d="M12.0001 12.8337C12.4603 12.8337 12.8334 12.4606 12.8334 12.0003C12.8334 11.5401 12.4603 11.167 12.0001 11.167C11.5398 11.167 11.1667 11.5401 11.1667 12.0003C11.1667 12.4606 11.5398 12.8337 12.0001 12.8337Z" stroke="#24292F" stroke-width="1.66667" stroke-linecap="round" stroke-linejoin="round"/>
<path d="M12.0001 6.99967C12.4603 6.99967 12.8334 6.62658 12.8334 6.16634C12.8334 5.7061 12.4603 5.33301 12.0001 5.33301C11.5398 5.33301 11.1667 5.7061 11.1667 6.16634C11.1667 6.62658 11.5398 6.99967 12.0001 6.99967Z" stroke="#24292F" stroke-width="1.66667" stroke-linecap="round" stroke-linejoin="round"/>
<path d="M12.0001 18.6667C12.4603 18.6667 12.8334 18.2936 12.8334 17.8333C12.8334 17.3731 12.4603 17 12.0001 17C11.5398 17 11.1667 17.3731 11.1667 17.8333C11.1667 18.2936 11.5398 18.6667 12.0001 18.6667Z" stroke="#24292F" stroke-width="1.66667" stroke-linecap="round" stroke-linejoin="round"/>
</svg>
