<svg width="21" height="20" viewBox="0 0 21 20" fill="none" xmlns="http://www.w3.org/2000/svg">
<path d="M4.48533 18.6831C4.48533 18.6831 -0.482814 15.7618 0.674922 10.8725C0.674922 10.8725 1.66405 7.40917 4.53591 5.03819C4.53591 5.03819 5.26091 0.468583 6.89635 0.287911C8.53179 0.107239 9.25678 4.37666 9.25678 4.37666H12.2916C12.2916 4.37666 13.0166 0.179507 14.8319 0.00439395C16.6472 -0.170719 17.2823 4.94647 17.2823 4.94647C17.2823 4.94647 20.4716 7.86779 20.4998 11.5007C20.5391 16.9764 15.9222 18.6831 15.9222 18.6831C15.9222 18.6831 11.384 21.6461 4.48814 18.6831H4.48533Z" fill="#7A6DF0"/>
</svg>
