<svg width="20" height="21" viewBox="0 0 20 21" fill="none" xmlns="http://www.w3.org/2000/svg">
<rect width="20" height="21" fill="#D1D1D1"/>
<g id="&#235;&#167;&#142;&#236;&#157;&#180; &#235;&#172;&#188;&#236;&#150;&#180;&#235;&#179;&#180;&#235;&#138;&#148; &#236;&#167;&#136;&#235;&#172;&#184; &#237;&#142;&#188;&#236;&#185;&#152;&#234;&#184;&#176;">
<path d="M-584 -285C-584 -286.105 -583.105 -287 -582 -287H433C434.105 -287 435 -286.105 435 -285V704C435 705.105 434.105 706 433 706H-582C-583.105 706 -584 705.105 -584 704V-285Z" fill="#57606A"/>
<path d="M-582 -286H433V-288H-582V-286ZM434 -285V704H436V-285H434ZM433 705H-582V707H433V705ZM-583 704V-285H-585V704H-583ZM-582 705C-582.552 705 -583 704.552 -583 704H-585C-585 705.657 -583.657 707 -582 707V705ZM434 704C434 704.552 433.552 705 433 705V707C434.657 707 436 705.657 436 704H434ZM433 -286C433.552 -286 434 -285.552 434 -285H436C436 -286.657 434.657 -288 433 -288V-286ZM-582 -288C-583.657 -288 -585 -286.657 -585 -285H-583C-583 -285.552 -582.552 -286 -582 -286V-288Z" fill="black" fill-opacity="0.1"/>
<g id="top10">
<rect width="375" height="793" transform="translate(-40 -187)" fill="white"/>
<g id="Question list">
<g id="Question 02">
<rect x="-20" y="-17" width="335" height="55" rx="12" fill="#F6F8FA"/>
<g id="Num">
<path id="Vector" d="M3.98533 18.9546C3.98533 18.9546 -0.982814 16.0333 0.174922 11.144C0.174922 11.144 1.16405 7.68065 4.03591 5.30968C4.03591 5.30968 4.76091 0.740068 6.39635 0.559396C8.03179 0.378724 8.75678 4.64814 8.75678 4.64814H11.7916C11.7916 4.64814 12.5166 0.450991 14.3319 0.275878C16.1472 0.100765 16.7823 5.21796 16.7823 5.21796C16.7823 5.21796 19.9716 8.13928 19.9998 11.7722C20.0391 17.2479 15.4222 18.9546 15.4222 18.9546C15.4222 18.9546 10.884 21.9176 3.98814 18.9546H3.98533Z" fill="#AFB8C1"/>
<path id="Num_2" d="M6.8628 15.4685C8.9068 13.5085 11.6928 11.5205 11.6928 9.79852C11.6928 8.65052 10.9648 7.83851 9.9288 7.83851C9.1308 7.83851 8.3328 8.41252 7.9688 9.23852L6.6668 8.66452C7.2268 7.37652 8.5848 6.48051 9.9288 6.48051C11.8468 6.48051 13.1768 7.85252 13.1768 9.79852C13.1768 11.9405 10.8528 13.8445 8.9628 15.4685H13.3448V16.7705H7.0028L6.8628 15.4685Z" fill="white"/>
</g>
</g>
</g>
</g>
</g>
</svg>
