<svg width="33" height="22" viewBox="0 0 33 22" fill="none" xmlns="http://www.w3.org/2000/svg">
<path d="M10.5186 2.87068C10.6204 2.42034 11.262 2.42034 11.3638 2.87068L12.2959 6.99727C12.3599 7.28049 12.6789 7.42182 12.9317 7.27893L15.1572 6.0207C15.514 5.81901 15.9254 6.17959 15.7722 6.55972L14.712 9.1909C14.6123 9.4385 14.758 9.71655 15.0184 9.77537L19.2168 10.7237C19.6671 10.8254 19.6671 11.4671 19.2168 11.5688L15.0074 12.5197C14.7508 12.5776 14.6047 12.8491 14.6976 13.0952L15.4552 15.102C15.5869 15.4508 15.2457 15.7919 14.8969 15.6603L12.8902 14.9027C12.644 14.8098 12.3726 14.9559 12.3146 15.2125L11.3638 19.4219C11.262 19.8722 10.6204 19.8722 10.5186 19.4219L9.57029 15.2235C9.51147 14.9631 9.23343 14.8173 8.98582 14.9171L6.35464 15.9773C5.97451 16.1305 5.61393 15.7191 5.81563 15.3623L7.07385 13.1367C7.21675 12.884 7.07541 12.5649 6.79219 12.501L2.6656 11.5688C2.21526 11.4671 2.21526 10.8254 2.6656 10.7237L6.81844 9.78566C7.09367 9.72349 7.23695 9.419 7.10942 9.1673L5.80438 6.59168C5.61515 6.21823 6.01315 5.82023 6.38661 6.00945L8.96222 7.3145C9.21392 7.44203 9.51841 7.29874 9.58058 7.02352L10.5186 2.87068Z" fill="#7A6DF0"/>
<path d="M25.9115 1.29547C25.9819 0.983607 26.4263 0.983606 26.4967 1.29547L26.9922 3.48897C27.0365 3.68511 27.2574 3.78298 27.4325 3.68402L28.5882 3.03063C28.8353 2.89095 29.1202 3.14066 29.0141 3.4039L28.4532 4.79591C28.3841 4.96738 28.4851 5.15993 28.6654 5.20066L30.9086 5.70737C31.2205 5.77782 31.2205 6.22218 30.9086 6.29263L28.6578 6.80105C28.4801 6.8412 28.3789 7.02919 28.4432 7.19964L28.8392 8.24846C28.9304 8.49002 28.6941 8.72628 28.4526 8.63509L27.4037 8.23913C27.2333 8.17479 27.0453 8.27598 27.0052 8.4537L26.4967 10.7045C26.4263 11.0164 25.9819 11.0164 25.9115 10.7045L25.4048 8.46129C25.364 8.28097 25.1715 8.18004 25 8.24913L23.608 8.81002C23.3448 8.91609 23.0951 8.63118 23.2347 8.38411L23.8881 7.22837C23.9871 7.05334 23.8892 6.83241 23.6931 6.7881L21.4996 6.29263C21.1877 6.22218 21.1877 5.77782 21.4996 5.70737L23.7113 5.20779C23.9018 5.16474 24.0011 4.95387 23.9128 4.77957L23.2269 3.42604C23.0959 3.16742 23.3715 2.89179 23.6301 3.02284L24.9837 3.70866C25.158 3.79698 25.3688 3.69775 25.4119 3.50715L25.9115 1.29547Z" fill="#7A6DF0"/>
</svg>
