<svg width="20" height="21" viewBox="0 0 20 21" fill="none" xmlns="http://www.w3.org/2000/svg">
<path d="M3.98533 18.9653C3.98533 18.9653 -0.982814 16.044 0.174922 11.1547C0.174922 11.1547 1.16405 7.69139 4.03591 5.32042C4.03591 5.32042 4.76091 0.75081 6.39635 0.570138C8.03179 0.389466 8.75678 4.65889 8.75678 4.65889H11.7916C11.7916 4.65889 12.5166 0.461733 14.3319 0.286621C16.1472 0.111508 16.7823 5.2287 16.7823 5.2287C16.7823 5.2287 19.9716 8.15002 19.9998 11.7829C20.0391 17.2587 15.4222 18.9653 15.4222 18.9653C15.4222 18.9653 10.884 21.9283 3.98814 18.9653H3.98533Z" fill="#BD7622"/>
<path d="M11.9683 11.4958C12.8783 12.0278 13.4523 13.0218 13.4523 13.8758C13.4523 15.6118 12.0243 16.8438 9.99426 16.8438C7.97826 16.8438 6.55026 15.5838 6.55026 13.7918H8.03426C8.03426 14.8138 8.84626 15.5278 9.99426 15.5278C11.1703 15.5278 12.0103 14.8138 12.0103 13.7918C12.0103 12.8118 11.1843 12.1118 10.0223 12.1118H9.29426V10.8658H10.0363C11.1003 10.8658 11.8563 10.2358 11.8563 9.33977C11.8563 8.42977 11.1283 7.79977 10.0923 7.79977C9.05626 7.79977 8.34226 8.44377 8.34226 9.35377H6.85826C6.85826 7.65977 8.18826 6.48377 10.0923 6.48377C11.9683 6.48377 13.2983 7.63177 13.2983 9.25577C13.2983 10.0398 12.7943 10.9638 11.9683 11.4958Z" fill="white"/>
</svg>
